  0
SECTION
  2
HEADER
  9
$ACADVER
  1
AC1014
  9
$HANDSEED
  5
FFFF
  9
$MEASUREMENT
 70
     1
  0
ENDSEC
  0
SECTION
  2
TABLES
  0
TABLE
  2
VPORT
  5
8
330
0
100
AcDbSymbolTable
 70
     4
  0
VPORT
  5
2E
330
8
100
AcDbSymbolTableRecord
100
AcDbViewportTableRecord
  2
*ACTIVE
 70
     0
 10
0.0
 20
0.0
 11
1.0
 21
1.0
 12
210.0
 22
148.5
 13
0.0
 23
0.0
 14
10.0
 24
10.0
 15
10.0
 25
10.0
 16
0.0
 26
0.0
 36
1.0
 17
0.0
 27
0.0
 37
0.0
 40
341.0
 41
1.24
 42
50.0
 43
0.0
 44
0.0
 50
0.0
 51
0.0
 71
     0
 72
   100
 73
     1
 74
     3
 75
     0
 76
     0
 77
     0
 78
     0
  0
ENDTAB
  0
TABLE
  2
LTYPE
  5
5
330
0
100
AcDbSymbolTable
 70
     1
  0
LTYPE
  5
14
330
5
100
AcDbSymbolTableRecord
100
AcDbLinetypeTableRecord
  2
BYBLOCK
 70
     0
  3

 72
    65
 73
     0
 40
0.0
  0
LTYPE
  5
15
330
5
100
AcDbSymbolTableRecord
100
AcDbLinetypeTableRecord
  2
BYLAYER
 70
     0
  3

 72
    65
 73
     0
 40
0.0
  0
LTYPE
  5
16
330
5
100
AcDbSymbolTableRecord
100
AcDbLinetypeTableRecord
  2
CONTINUOUS
 70
     0
  3
Solid line
 72
    65
 73
     0
 40
0.0
  0
ENDTAB
  0
TABLE
  2
LAYER
  5
2
100
AcDbSymbolTable
 70
1
  0
LAYER
  5
50
100
AcDbSymbolTableRecord
100
AcDbLayerTableRecord
  2
0
 70
0
  6
CONTINUOUS
  0
ENDTAB
  0
TABLE
  2
STYLE
  5
3
330
0
100
AcDbSymbolTable
 70
     1
  0
STYLE
  5
11
330
3
100
AcDbSymbolTableRecord
100
AcDbTextStyleTableRecord
  2
STANDARD
 70
     0
 40
0.0
 41
1.0
 50
0.0
 71
     0
 42
2.5
  3
txt
  4

  0
ENDTAB
  0
TABLE
  2
VIEW
  5
6
330
0
100
AcDbSymbolTable
 70
     0
  0
ENDTAB
  0
TABLE
  2
UCS
  5
7
330
0
100
AcDbSymbolTable
 70
     0
  0
ENDTAB
  0
TABLE
  2
APPID
  5
9
330
0
100
AcDbSymbolTable
 70
     2
  0
APPID
  5
12
330
9
100
AcDbSymbolTableRecord
100
AcDbRegAppTableRecord
  2
ACAD
 70
     0
  0
ENDTAB
  0
TABLE
  2
DIMSTYLE
  5
A
330
0
100
AcDbSymbolTable
 70
     1
  0
DIMSTYLE
105
27
330
A
100
AcDbSymbolTableRecord
100
AcDbDimStyleTableRecord
  2
ISO-25
 70
     0
  3

  4

  5

  6

  7

 40
1.0
 41
2.5
 42
0.625
 43
3.75
 44
1.25
 45
0.0
 46
0.0
 47
0.0
 48
0.0
140
2.5
141
2.5
142
0.0
143
0.03937007874016
144
1.0
145
0.0
146
1.0
147
0.625
 71
     0
 72
     0
 73
     0
 74
     0
 75
     0
 76
     0
 77
     1
 78
     8
170
     0
171
     3
172
     1
173
     0
174
     0
175
     0
176
     0
177
     0
178
     0
270
     2
271
     2
272
     2
273
     2
274
     3
340
11
275
     0
280
     0
281
     0
282
     0
283
     0
284
     8
285
     0
286
     0
287
     3
288
     0
  0
ENDTAB
  0
TABLE
  2
BLOCK_RECORD
  5
1
330
0
100
AcDbSymbolTable
 70
     1
  0
BLOCK_RECORD
  5
1F
330
1
100
AcDbSymbolTableRecord
100
AcDbBlockTableRecord
  2
*MODEL_SPACE
  0
BLOCK_RECORD
  5
1B
330
1
100
AcDbSymbolTableRecord
100
AcDbBlockTableRecord
  2
*PAPER_SPACE
  0
ENDTAB
  0
ENDSEC
  0
SECTION
  2
BLOCKS
  0
BLOCK
  5
20
330
1F
100
AcDbEntity
  8
0
100
AcDbBlockBegin
  2
*MODEL_SPACE
 70
     0
 10
0.0
 20
0.0
 30
0.0
  3
*MODEL_SPACE
  1

  0
ENDBLK
  5
21
330
1F
100
AcDbEntity
  8
0
100
AcDbBlockEnd
  0
BLOCK
  5
1C
330
1B
100
AcDbEntity
 67
     1
  8
0
100
AcDbBlockBegin
  2
*PAPER_SPACE
  1

  0
ENDBLK
  5
1D
330
1B
100
AcDbEntity
 67
     1
  8
0
100
AcDbBlockEnd
  0
ENDSEC
  0
SECTION
  2
ENTITIES
  0
SPLINE
  5
100
100
AcDbEntity
  8
0
 62
7
100
AcDbSpline
 70
8
 71
3
 72
8
 73
4
 74
0
 40
0
 40
0
 40
0
 40
0
 40
1
 40
1
 40
1
 40
1
 10
14.125162
 20
13.345777
 30
0.0
 10
14.591593
 20
13.293827
 30
0.0
 10
14.285253
 20
12.691406
 30
0.0
 10
14.038812
 20
12.570538
 30
0.0
  0
SPLINE
  5
101
100
AcDbEntity
  8
0
 62
7
100
AcDbSpline
 70
8
 71
3
 72
8
 73
4
 74
0
 40
0
 40
0
 40
0
 40
0
 40
1
 40
1
 40
1
 40
1
 10
14.038812
 20
12.570538
 30
0.0
 10
13.370980
 20
12.242992
 30
0.0
 10
12.698970
 20
12.896538
 30
0.0
 10
12.574680
 20
13.518470
 30
0.0
  0
SPLINE
  5
102
100
AcDbEntity
  8
0
 62
7
100
AcDbSpline
 70
8
 71
3
 72
8
 73
4
 74
0
 40
0
 40
0
 40
0
 40
0
 40
1
 40
1
 40
1
 40
1
 10
12.574680
 20
13.518470
 30
0.0
 10
12.352356
 20
14.630961
 30
0.0
 10
13.335501
 20
15.568200
 30
0.0
 10
14.384199
 20
15.671494
 30
0.0
  0
SPLINE
  5
103
100
AcDbEntity
  8
0
 62
7
100
AcDbSpline
 70
8
 71
3
 72
8
 73
4
 74
0
 40
0
 40
0
 40
0
 40
0
 40
1
 40
1
 40
1
 40
1
 10
14.384199
 20
15.671494
 30
0.0
 10
15.923206
 20
15.823083
 30
0.0
 10
17.156998
 20
14.472795
 30
0.0
 10
17.226115
 20
13.000389
 30
0.0
  0
SPLINE
  5
104
100
AcDbEntity
  8
0
 62
7
100
AcDbSpline
 70
8
 71
3
 72
8
 73
4
 74
0
 40
0
 40
0
 40
0
 40
0
 40
1
 40
1
 40
1
 40
1
 10
17.226115
 20
13.000389
 30
0.0
 10
17.318235
 20
11.037905
 30
0.0
 10
15.588823
 20
9.499377
 30
0.0
 10
13.693424
 20
9.469581
 30
0.0
  0
SPLINE
  5
105
100
AcDbEntity
  8
0
 62
7
100
AcDbSpline
 70
8
 71
3
 72
8
 73
4
 74
0
 40
0
 40
0
 40
0
 40
0
 40
1
 40
1
 40
1
 40
1
 10
13.693424
 20
9.469581
 30
0.0
 10
11.308259
 20
9.432091
 30
0.0
 10
9.461632
 20
11.545715
 30
0.0
 10
9.473724
 20
13.863858
 30
0.0
  0
SPLINE
  5
106
100
AcDbEntity
  8
0
 62
7
100
AcDbSpline
 70
8
 71
3
 72
8
 73
4
 74
0
 40
0
 40
0
 40
0
 40
0
 40
1
 40
1
 40
1
 40
1
 10
9.473724
 20
13.863858
 30
0.0
 10
9.488364
 20
16.671439
 30
0.0
 10
11.988822
 20
18.827897
 30
0.0
 10
14.729587
 20
18.772451
 30
0.0
  0
SPLINE
  5
107
100
AcDbEntity
  8
0
 62
7
100
AcDbSpline
 70
8
 71
3
 72
8
 73
4
 74
0
 40
0
 40
0
 40
0
 40
0
 40
1
 40
1
 40
1
 40
1
 10
14.729587
 20
18.772451
 30
0.0
 10
17.959483
 20
18.707111
 30
0.0
 10
20.426793
 20
15.818315
 30
0.0
 10
20.327073
 20
12.655002
 30
0.0
  0
SPLINE
  5
108
100
AcDbEntity
  8
0
 62
7
100
AcDbSpline
 70
8
 71
3
 72
8
 73
4
 74
0
 40
0
 40
0
 40
0
 40
0
 40
1
 40
1
 40
1
 40
1
 10
20.327073
 20
12.655002
 30
0.0
 10
20.211943
 20
9.002831
 30
0.0
 10
16.933850
 20
6.224017
 30
0.0
 10
13.348037
 20
6.368624
 30
0.0
  0
SPLINE
  5
109
100
AcDbEntity
  8
0
 62
7
100
AcDbSpline
 70
8
 71
3
 72
8
 73
4
 74
0
 40
0
 40
0
 40
0
 40
0
 40
1
 40
1
 40
1
 40
1
 10
13.348037
 20
6.368624
 30
0.0
 10
9.273608
 20
6.532937
 30
0.0
 10
6.182843
 20
10.200968
 30
0.0
 10
6.372767
 20
14.209245
 30
0.0
  0
SPLINE
  5
10a
100
AcDbEntity
  8
0
 62
7
100
AcDbSpline
 70
8
 71
3
 72
8
 73
4
 74
0
 40
0
 40
0
 40
0
 40
0
 40
1
 40
1
 40
1
 40
1
 10
6.372767
 20
14.209245
 30
0.0
 10
6.585833
 20
18.705927
 30
0.0
 10
10.644258
 20
22.108960
 30
0.0
 10
15.074974
 20
21.873407
 30
0.0
  0
SPLINE
  5
10b
100
AcDbEntity
  8
0
 62
7
100
AcDbSpline
 70
8
 71
3
 72
8
 73
4
 74
0
 40
0
 40
0
 40
0
 40
0
 40
1
 40
1
 40
1
 40
1
 10
15.074974
 20
21.873407
 30
0.0
 10
19.993913
 20
21.611899
 30
0.0
 10
23.709453
 20
17.162747
 30
0.0
 10
23.428033
 20
12.309615
 30
0.0
  0
SPLINE
  5
10c
100
AcDbEntity
  8
0
 62
7
100
AcDbSpline
 70
8
 71
3
 72
8
 73
4
 74
0
 40
0
 40
0
 40
0
 40
0
 40
1
 40
1
 40
1
 40
1
 10
23.428033
 20
12.309615
 30
0.0
 10
23.118313
 20
6.968427
 30
0.0
 10
18.278184
 20
2.940207
 30
0.0
 10
13.002650
 20
3.267668
 30
0.0
  0
SPLINE
  5
10d
100
AcDbEntity
  8
0
 62
7
100
AcDbSpline
 70
8
 71
3
 72
8
 73
4
 74
0
 40
0
 40
0
 40
0
 40
0
 40
1
 40
1
 40
1
 40
1
 10
13.002650
 20
3.267668
 30
0.0
 10
7.239205
 20
3.625414
 30
0.0
 10
2.898164
 20
8.856710
 30
0.0
 10
3.271811
 20
14.554632
 30
0.0
  0
SPLINE
  5
10e
100
AcDbEntity
  8
0
 62
7
100
AcDbSpline
 70
8
 71
3
 72
8
 73
4
 74
0
 40
0
 40
0
 40
0
 40
0
 40
1
 40
1
 40
1
 40
1
 10
3.271811
 20
14.554632
 30
0.0
 10
3.677444
 20
20.740337
 30
0.0
 10
9.300061
 20
25.394310
 30
0.0
 10
15.420361
 20
24.974364
 30
0.0
  0
SPLINE
  5
10f
100
AcDbEntity
  8
0
 62
7
100
AcDbSpline
 70
8
 71
3
 72
8
 73
4
 74
0
 40
0
 40
0
 40
0
 40
0
 40
1
 40
1
 40
1
 40
1
 10
15.420361
 20
24.974364
 30
0.0
 10
22.028333
 20
24.520957
 30
0.0
 10
26.995323
 20
18.506896
 30
0.0
 10
26.528983
 20
11.964227
 30
0.0
  0
SPLINE
  5
110
100
AcDbEntity
  8
0
 62
7
100
AcDbSpline
 70
8
 71
3
 72
8
 73
4
 74
0
 40
0
 40
0
 40
0
 40
0
 40
1
 40
1
 40
1
 40
1
 10
26.528983
 20
11.964227
 30
0.0
 10
26.027903
 20
4.933995
 30
0.0
 10
19.622293
 20
-0.346093
 30
0.0
 10
12.657262
 20
0.166711
 30
0.0
  0
SPLINE
  5
111
100
AcDbEntity
  8
0
 62
7
100
AcDbSpline
 70
8
 71
3
 72
8
 73
4
 74
0
 40
0
 40
0
 40
0
 40
0
 40
1
 40
1
 40
1
 40
1
 10
12.657262
 20
0.166711
 30
0.0
 10
5.204763
 20
0.715406
 30
0.0
 10
-0.388481
 20
7.512636
 30
0.0
 10
0.170854
 20
14.900020
 30
0.0
  0
SPLINE
  5
112
100
AcDbEntity
  8
0
 62
7
100
AcDbSpline
 70
8
 71
3
 72
8
 73
4
 74
0
 40
0
 40
0
 40
0
 40
0
 40
1
 40
1
 40
1
 40
1
 10
0.170854
 20
14.900020
 30
0.0
 10
0.767091
 20
22.774790
 30
0.0
 10
7.956015
 20
28.681239
 30
0.0
 10
15.765749
 20
28.075320
 30
0.0
  0
SPLINE
  5
113
100
AcDbEntity
  8
0
 62
7
100
AcDbSpline
 70
8
 71
3
 72
8
 73
4
 74
0
 40
0
 40
0
 40
0
 40
0
 40
1
 40
1
 40
1
 40
1
 10
15.765749
 20
28.075320
 30
0.0
 10
17.638996
 20
27.929984
 30
0.0
 10
19.480373
 20
27.425167
 30
0.0
 10
21.167633
 20
26.598943
 30
0.0
  0
SPLINE
  5
114
100
AcDbEntity
  8
0
 62
7
100
AcDbSpline
 70
8
 71
3
 72
8
 73
4
 74
0
 40
0
 40
0
 40
0
 40
0
 40
1
 40
1
 40
1
 40
1
 10
14.125162
 20
13.345777
 30
0.0
 10
13.683370
 20
13.146615
 30
0.0
 10
13.638731
 20
13.843043
 30
0.0
 10
13.794141
 20
14.080063
 30
0.0
  0
SPLINE
  5
115
100
AcDbEntity
  8
0
 62
7
100
AcDbSpline
 70
8
 71
3
 72
8
 73
4
 74
0
 40
0
 40
0
 40
0
 40
0
 40
1
 40
1
 40
1
 40
1
 10
13.794141
 20
14.080063
 30
0.0
 10
14.215294
 20
14.722372
 30
0.0
 10
15.156178
 20
14.495089
 30
0.0
 10
15.593734
 20
14.007813
 30
0.0
  0
SPLINE
  5
116
100
AcDbEntity
  8
0
 62
7
100
AcDbSpline
 70
8
 71
3
 72
8
 73
4
 74
0
 40
0
 40
0
 40
0
 40
0
 40
1
 40
1
 40
1
 40
1
 10
15.593734
 20
14.007813
 30
0.0
 10
16.376418
 20
13.136198
 30
0.0
 10
15.995757
 20
11.786278
 30
0.0
 10
15.118222
 20
11.142915
 30
0.0
  0
SPLINE
  5
117
100
AcDbEntity
  8
0
 62
7
100
AcDbSpline
 70
8
 71
3
 72
8
 73
4
 74
0
 40
0
 40
0
 40
0
 40
0
 40
1
 40
1
 40
1
 40
1
 10
15.118222
 20
11.142915
 30
0.0
 10
13.830404
 20
10.198754
 30
0.0
 10
12.023866
 20
10.749679
 30
0.0
 10
11.188018
 20
12.021692
 30
0.0
  0
SPLINE
  5
118
100
AcDbEntity
  8
0
 62
7
100
AcDbSpline
 70
8
 71
3
 72
8
 73
4
 74
0
 40
0
 40
0
 40
0
 40
0
 40
1
 40
1
 40
1
 40
1
 10
11.188018
 20
12.021692
 30
0.0
 10
10.073964
 20
13.717085
 30
0.0
 10
10.801497
 20
15.993816
 30
0.0
 10
12.470061
 20
17.017203
 30
0.0
  0
SPLINE
  5
119
100
AcDbEntity
  8
0
 62
7
100
AcDbSpline
 70
8
 71
3
 72
8
 73
4
 74
0
 40
0
 40
0
 40
0
 40
0
 40
1
 40
1
 40
1
 40
1
 10
12.470061
 20
17.017203
 30
0.0
 10
14.569777
 20
18.305030
 30
0.0
 10
17.322364
 20
17.398135
 30
0.0
 10
18.530878
 20
15.331894
 30
0.0
  0
SPLINE
  5
11a
100
AcDbEntity
  8
0
 62
7
100
AcDbSpline
 70
8
 71
3
 72
8
 73
4
 74
0
 40
0
 40
0
 40
0
 40
0
 40
1
 40
1
 40
1
 40
1
 10
18.530878
 20
15.331894
 30
0.0
 10
19.994553
 20
12.829399
 30
0.0
 10
18.906883
 20
9.598043
 30
0.0
 10
16.442303
 20
8.205771
 30
0.0
  0
SPLINE
  5
11b
100
AcDbEntity
  8
0
 62
7
100
AcDbSpline
 70
8
 71
3
 72
8
 73
4
 74
0
 40
0
 40
0
 40
0
 40
0
 40
1
 40
1
 40
1
 40
1
 10
16.442303
 20
8.205771
 30
0.0
 10
13.537878
 20
6.565026
 30
0.0
 10
9.826050
 20
7.834269
 30
0.0
 10
8.250874
 20
10.697611
 30
0.0
  0
SPLINE
  5
11c
100
AcDbEntity
  8
0
 62
7
100
AcDbSpline
 70
8
 71
3
 72
8
 73
4
 74
0
 40
0
 40
0
 40
0
 40
0
 40
1
 40
1
 40
1
 40
1
 10
8.250874
 20
10.697611
 30
0.0
 10
6.432271
 20
14.003453
 30
0.0
 10
7.883600
 20
18.196838
 30
0.0
 10
11.145980
 20
19.954347
 30
0.0
  0
SPLINE
  5
11d
100
AcDbEntity
  8
0
 62
7
100
AcDbSpline
 70
8
 71
3
 72
8
 73
4
 74
0
 40
0
 40
0
 40
0
 40
0
 40
1
 40
1
 40
1
 40
1
 10
11.145980
 20
19.954347
 30
0.0
 10
14.852904
 20
21.951340
 30
0.0
 10
19.528583
 20
20.317588
 30
0.0
 10
21.468023
 20
16.655975
 30
0.0
  0
SPLINE
  5
11e
100
AcDbEntity
  8
0
 62
7
100
AcDbSpline
 70
8
 71
3
 72
8
 73
4
 74
0
 40
0
 40
0
 40
0
 40
0
 40
1
 40
1
 40
1
 40
1
 10
21.468023
 20
16.655975
 30
0.0
 10
23.643783
 20
12.548198
 30
0.0
 10
21.827373
 20
7.389710
 30
0.0
 10
17.766384
 20
5.268627
 30
0.0
  0
SPLINE
  5
11f
100
AcDbEntity
  8
0
 62
7
100
AcDbSpline
 70
8
 71
3
 72
8
 73
4
 74
0
 40
0
 40
0
 40
0
 40
0
 40
1
 40
1
 40
1
 40
1
 10
17.766384
 20
5.268627
 30
0.0
 10
13.257918
 20
2.913823
 30
0.0
 10
7.616235
 20
4.913064
 30
0.0
 10
5.313730
 20
9.373530
 30
0.0
  0
SPLINE
  5
120
100
AcDbEntity
  8
0
 62
7
100
AcDbSpline
 70
8
 71
3
 72
8
 73
4
 74
0
 40
0
 40
0
 40
0
 40
0
 40
1
 40
1
 40
1
 40
1
 10
5.313730
 20
9.373530
 30
0.0
 10
2.779674
 20
14.282563
 30
0.0
 10
4.961873
 20
20.407733
 30
0.0
 10
9.821899
 20
22.891490
 30
0.0
  0
SPLINE
  5
121
100
AcDbEntity
  8
0
 62
7
100
AcDbSpline
 70
8
 71
3
 72
8
 73
4
 74
0
 40
0
 40
0
 40
0
 40
0
 40
1
 40
1
 40
1
 40
1
 10
9.821899
 20
22.891490
 30
0.0
 10
15.131407
 20
25.604960
 30
0.0
 10
21.740283
 20
23.239704
 30
0.0
 10
24.405163
 20
17.980056
 30
0.0
  0
SPLINE
  5
122
100
AcDbEntity
  8
0
 62
7
100
AcDbSpline
 70
8
 71
3
 72
8
 73
4
 74
0
 40
0
 40
0
 40
0
 40
0
 40
1
 40
1
 40
1
 40
1
 10
24.405163
 20
17.980056
 30
0.0
 10
27.298173
 20
12.270145
 30
0.0
 10
24.749783
 20
5.177375
 30
0.0
 10
19.090463
 20
2.331483
 30
0.0
  0
SPLINE
  5
123
100
AcDbEntity
  8
0
 62
7
100
AcDbSpline
 70
8
 71
3
 72
8
 73
4
 74
0
 40
0
 40
0
 40
0
 40
0
 40
1
 40
1
 40
1
 40
1
 10
19.090463
 20
2.331483
 30
0.0
 10
12.980208
 20
-0.741171
 30
0.0
 10
5.403405
 20
1.990415
 30
0.0
 10
2.376586
 20
8.049450
 30
0.0
  0
SPLINE
  5
124
100
AcDbEntity
  8
0
 62
7
100
AcDbSpline
 70
8
 71
3
 72
8
 73
4
 74
0
 40
0
 40
0
 40
0
 40
0
 40
1
 40
1
 40
1
 40
1
 10
2.376586
 20
8.049450
 30
0.0
 10
-0.875794
 20
14.560006
 30
0.0
 10
2.039038
 20
22.620959
 30
0.0
 10
8.497818
 20
25.828634
 30
0.0
  0
SPLINE
  5
125
100
AcDbEntity
  8
0
 62
7
100
AcDbSpline
 70
8
 71
3
 72
8
 73
4
 74
0
 40
0
 40
0
 40
0
 40
0
 40
1
 40
1
 40
1
 40
1
 10
8.497818
 20
25.828634
 30
0.0
 10
12.353232
 20
27.743379
 30
0.0
 10
16.979727
 20
27.716136
 30
0.0
 10
20.835763
 20
25.818004
 30
0.0
  0
LWPOLYLINE
  5
126
100
AcDbEntity
  8
0
 62
7
100
AcDbPolyline
 90
2
 70
0
 10
20.835763
 20
25.818008
 30
0.0
 10
21.167633
 20
26.598945
 30
0.0
  0
LWPOLYLINE
  5
127
100
AcDbEntity
  8
0
 62
7
100
AcDbPolyline
 90
504
 70
1
 10
14.452382
 20
28.084488
 30
0.0
 10
12.524577
 20
27.930527
 30
0.0
 10
10.640076
 20
27.511771
 30
0.0
 10
8.827381
 20
26.845762
 30
0.0
 10
7.114995
 20
25.950068
 30
0.0
 10
5.531422
 20
24.842205
 30
0.0
 10
4.105163
 20
23.539714
 30
0.0
 10
2.864723
 20
22.060138
 30
0.0
 10
1.838605
 20
20.421044
 30
0.0
 10
1.512249
 20
19.769666
 30
0.0
 10
1.215466
 20
19.102599
 30
0.0
 10
0.951014
 20
18.421455
 30
0.0
 10
0.721654
 20
17.727877
 30
0.0
 10
0.530146
 20
17.023503
 30
0.0
 10
0.379250
 20
16.309922
 30
0.0
 10
0.271728
 20
15.588826
 30
0.0
 10
0.210337
 20
14.861831
 30
0.0
 10
0.201193
 20
14.371002
 30
0.0
 10
0.195465
 20
13.879274
 30
0.0
 10
0.197701
 20
13.387440
 30
0.0
 10
0.212452
 20
12.896294
 30
0.0
 10
0.244266
 20
12.406630
 30
0.0
 10
0.297695
 20
11.919267
 30
0.0
 10
0.377286
 20
11.434947
 30
0.0
 10
0.487590
 20
10.954517
 30
0.0
 10
0.971052
 20
9.264782
 30
0.0
 10
1.670554
 20
7.654475
 30
0.0
 10
2.568243
 20
6.145053
 30
0.0
 10
3.646268
 20
4.758055
 30
0.0
 10
4.886774
 20
3.514936
 30
0.0
 10
6.271910
 20
2.437183
 30
0.0
 10
7.783823
 20
1.546304
 30
0.0
 10
9.404660
 20
0.863785
 30
0.0
 10
10.057797
 20
0.652780
 30
0.0
 10
10.721222
 20
0.480906
 30
0.0
 10
11.392984
 20
0.347424
 30
0.0
 10
12.071132
 20
0.251671
 30
0.0
 10
12.753714
 20
0.192960
 30
0.0
 10
13.438780
 20
0.170471
 30
0.0
 10
14.124376
 20
0.183700
 30
0.0
 10
14.808552
 20
0.231801
 30
0.0
 10
16.558711
 20
0.516546
 30
0.0
 10
18.248993
 20
1.045210
 30
0.0
 10
19.852824
 20
1.799034
 30
0.0
 10
21.343631
 20
2.759154
 30
0.0
 10
22.694837
 20
3.906784
 30
0.0
 10
23.879869
 20
5.223113
 30
0.0
 10
24.872152
 20
6.689328
 30
0.0
 10
25.645110
 20
8.286617
 30
0.0
 10
26.065582
 20
9.507590
 30
0.0
 10
26.348531
 20
10.766054
 30
0.0
 10
26.494798
 20
12.047537
 30
0.0
 10
26.505222
 20
13.337619
 30
0.0
 10
26.380649
 20
14.621801
 30
0.0
 10
26.121919
 20
15.885609
 30
0.0
 10
25.729873
 20
17.114599
 30
0.0
 10
25.205352
 20
18.294297
 30
0.0
 10
24.541352
 20
19.466454
 30
0.0
 10
23.749715
 20
20.556511
 30
0.0
 10
22.842561
 20
21.552746
 30
0.0
 10
21.832012
 20
22.443387
 30
0.0
 10
20.730188
 20
23.216737
 30
0.0
 10
19.549212
 20
23.861051
 30
0.0
 10
18.301203
 20
24.364579
 30
0.0
 10
16.998282
 20
24.715575
 30
0.0
 10
15.759877
 20
24.913695
 30
0.0
 10
14.509839
 20
24.966003
 30
0.0
 10
13.262336
 20
24.877183
 30
0.0
 10
12.031533
 20
24.651996
 30
0.0
 10
10.831599
 20
24.295126
 30
0.0
 10
9.676698
 20
23.811335
 30
0.0
 10
8.580999
 20
23.205307
 30
0.0
 10
7.558668
 20
22.481804
 30
0.0
 10
6.616105
 20
21.660379
 30
0.0
 10
5.772022
 20
20.737353
 30
0.0
 10
5.035578
 20
19.726116
 30
0.0
 10
4.415931
 20
18.640001
 30
0.0
 10
3.922240
 20
17.492424
 30
0.0
 10
3.563660
 20
16.296719
 30
0.0
 10
3.349353
 20
15.066248
 30
0.0
 10
3.288474
 20
13.814425
 30
0.0
 10
3.378373
 20
12.469706
 30
0.0
 10
3.643513
 20
11.151235
 30
0.0
 10
4.073444
 20
9.877028
 30
0.0
 10
4.657718
 20
8.665210
 30
0.0
 10
5.385887
 20
7.533772
 30
0.0
 10
6.247501
 20
6.500839
 30
0.0
 10
7.232112
 20
5.584401
 30
0.0
 10
8.329271
 20
4.802584
 30
0.0
 10
9.369999
 20
4.230502
 30
0.0
 10
10.472008
 20
3.791532
 30
0.0
 10
11.618569
 20
3.487737
 30
0.0
 10
12.792953
 20
3.321076
 30
0.0
 10
13.978433
 20
3.293586
 30
0.0
 10
15.158281
 20
3.407251
 30
0.0
 10
16.315767
 20
3.664108
 30
0.0
 10
17.434163
 20
4.066116
 30
0.0
 10
18.396689
 20
4.534561
 30
0.0
 10
19.303107
 20
5.104421
 30
0.0
 10
20.143692
 20
5.767599
 30
0.0
 10
20.908719
 20
6.516026
 30
0.0
 10
21.588462
 20
7.341605
 30
0.0
 10
22.173196
 20
8.236241
 30
0.0
 10
22.653196
 20
9.191836
 30
0.0
 10
23.018737
 20
10.200296
 30
0.0
 10
23.161052
 20
10.718694
 30
0.0
 10
23.269186
 20
11.245268
 30
0.0
 10
23.344194
 20
11.777847
 30
0.0
 10
23.387129
 20
12.314422
 30
0.0
 10
23.399046
 20
12.852849
 30
0.0
 10
23.381001
 20
13.391065
 30
0.0
 10
23.334048
 20
13.926952
 30
0.0
 10
23.259241
 20
14.458473
 30
0.0
 10
22.915248
 20
15.778506
 30
0.0
 10
22.370946
 20
17.029244
 30
0.0
 10
21.646237
 20
18.186691
 30
0.0
 10
20.761023
 20
19.226821
 30
0.0
 10
19.735203
 20
20.125637
 30
0.0
 10
18.588680
 20
20.859167
 30
0.0
 10
17.341355
 20
21.403389
 30
0.0
 10
16.013128
 20
21.734303
 30
0.0
 10
15.039937
 20
21.843232
 30
0.0
 10
14.063097
 20
21.831326
 30
0.0
 10
13.095137
 20
21.702924
 30
0.0
 10
12.148589
 20
21.462365
 30
0.0
 10
11.235980
 20
21.114014
 30
0.0
 10
10.369843
 20
20.662238
 30
0.0
 10
9.562706
 20
20.111323
 30
0.0
 10
8.827100
 20
19.465686
 30
0.0
 10
8.312333
 20
18.925434
 30
0.0
 10
7.850724
 20
18.339382
 30
0.0
 10
7.446082
 20
17.713034
 30
0.0
 10
7.102216
 20
17.051946
 30
0.0
 10
6.822935
 20
16.361621
 30
0.0
 10
6.612048
 20
15.647590
 30
0.0
 10
6.473364
 20
14.915329
 30
0.0
 10
6.410692
 20
14.170395
 30
0.0
 10
6.452296
 20
12.950057
 30
0.0
 10
6.701850
 20
11.756628
 30
0.0
 10
7.142235
 20
10.617729
 30
0.0
 10
7.756330
 20
9.560930
 30
0.0
 10
8.527014
 20
8.613854
 30
0.0
 10
9.437168
 20
7.804097
 30
0.0
 10
10.469672
 20
7.159281
 30
0.0
 10
11.607404
 20
6.707002
 30
0.0
 10
12.574806
 20
6.471391
 30
0.0
 10
13.562265
 20
6.393286
 30
0.0
 10
14.550037
 20
6.465252
 30
0.0
 10
15.518378
 20
6.679856
 30
0.0
 10
16.447544
 20
7.029635
 30
0.0
 10
17.317791
 20
7.507181
 30
0.0
 10
18.109376
 20
8.105034
 30
0.0
 10
18.802554
 20
8.815758
 30
0.0
 10
19.377944
 20
9.602761
 30
0.0
 10
19.815392
 20
10.472843
 30
0.0
 10
20.111212
 20
11.401795
 30
0.0
 10
20.261720
 20
12.365275
 30
0.0
 10
20.263229
 20
13.339048
 30
0.0
 10
20.112061
 20
14.298850
 30
0.0
 10
19.804529
 20
15.220368
 30
0.0
 10
19.336948
 20
16.079337
 30
0.0
 10
18.873894
 20
16.715343
 30
0.0
 10
18.326161
 20
17.280810
 30
0.0
 10
17.706451
 20
17.766770
 30
0.0
 10
17.027465
 20
18.164333
 30
0.0
 10
16.301905
 20
18.464530
 30
0.0
 10
15.542470
 20
18.658443
 30
0.0
 10
14.761864
 20
18.737130
 30
0.0
 10
13.972786
 20
18.691674
 30
0.0
 10
13.294337
 20
18.562955
 30
0.0
 10
12.641805
 20
18.341604
 30
0.0
 10
12.024754
 20
18.034979
 30
0.0
 10
11.452747
 20
17.650354
 30
0.0
 10
10.935347
 20
17.195032
 30
0.0
 10
10.482118
 20
16.676370
 30
0.0
 10
10.102622
 20
16.101615
 30
0.0
 10
9.806423
 20
15.478125
 30
0.0
 10
9.631028
 20
14.897682
 30
0.0
 10
9.535170
 20
14.299670
 30
0.0
 10
9.518361
 20
13.694621
 30
0.0
 10
9.580112
 20
13.093091
 30
0.0
 10
9.719935
 20
12.505584
 30
0.0
 10
9.937341
 20
11.942630
 30
0.0
 10
10.231841
 20
11.414813
 30
0.0
 10
10.602946
 20
10.932636
 30
0.0
 10
11.037069
 20
10.491470
 30
0.0
 10
11.536113
 20
10.122746
 30
0.0
 10
12.085743
 20
9.833477
 30
0.0
 10
12.671623
 20
9.630674
 30
0.0
 10
13.279417
 20
9.521269
 30
0.0
 10
13.894789
 20
9.512273
 30
0.0
 10
14.503404
 20
9.610725
 30
0.0
 10
15.090926
 20
9.823608
 30
0.0
 10
15.570586
 20
10.073481
 30
0.0
 10
16.010000
 20
10.396855
 30
0.0
 10
16.397599
 20
10.783411
 30
0.0
 10
16.721812
 20
11.222857
 30
0.0
 10
16.971068
 20
11.704849
 30
0.0
 10
17.133798
 20
12.219119
 30
0.0
 10
17.198431
 20
12.755324
 30
0.0
 10
17.153397
 20
13.303170
 30
0.0
 10
17.040690
 20
13.775795
 30
0.0
 10
16.845580
 20
14.224449
 30
0.0
 10
16.577368
 20
14.635321
 30
0.0
 10
16.245354
 20
14.994599
 30
0.0
 10
15.858840
 20
15.288524
 30
0.0
 10
15.427126
 20
15.503313
 30
0.0
 10
14.959514
 20
15.625180
 30
0.0
 10
14.465303
 20
15.640261
 30
0.0
 10
14.098364
 20
15.580545
 30
0.0
 10
13.741458
 20
15.453571
 30
0.0
 10
13.408379
 20
15.266431
 30
0.0
 10
13.112923
 20
15.026216
 30
0.0
 10
12.868884
 20
14.739990
 30
0.0
 10
12.690058
 20
14.414844
 30
0.0
 10
12.590240
 20
14.057841
 30
0.0
 10
12.583223
 20
13.676048
 30
0.0
 10
12.634094
 20
13.448823
 30
0.0
 10
12.724503
 20
13.225277
 30
0.0
 10
12.850364
 20
13.015568
 30
0.0
 10
13.007590
 20
12.829857
 30
0.0
 10
13.192093
 20
12.678330
 30
0.0
 10
13.399786
 20
12.571095
 30
0.0
 10
13.626582
 20
12.518363
 30
0.0
 10
13.868394
 20
12.530269
 30
0.0
 10
13.971825
 20
12.571121
 30
0.0
 10
14.075885
 20
12.636182
 30
0.0
 10
14.172272
 20
12.720267
 30
0.0
 10
14.252686
 20
12.818242
 30
0.0
 10
14.308826
 20
12.924843
 30
0.0
 10
14.332390
 20
13.034962
 30
0.0
 10
14.315078
 20
13.143335
 30
0.0
 10
14.248589
 20
13.244830
 30
0.0
 10
14.178327
 20
13.277241
 30
0.0
 10
14.099436
 20
13.293910
 30
0.0
 10
14.017031
 20
13.302906
 30
0.0
 10
13.936227
 20
13.312166
 30
0.0
 10
13.862137
 20
13.330158
 30
0.0
 10
13.799878
 20
13.364739
 30
0.0
 10
13.754562
 20
13.424164
 30
0.0
 10
13.731305
 20
13.516583
 30
0.0
 10
13.692651
 20
13.731584
 30
0.0
 10
13.724517
 20
13.933646
 30
0.0
 10
13.815194
 20
14.115838
 30
0.0
 10
13.952972
 20
14.271148
 30
0.0
 10
14.126140
 20
14.392698
 30
0.0
 10
14.322989
 20
14.473502
 30
0.0
 10
14.531809
 20
14.506628
 30
0.0
 10
14.740889
 20
14.485196
 30
0.0
 10
15.038074
 20
14.403572
 30
0.0
 10
15.308028
 20
14.261332
 30
0.0
 10
15.544406
 20
14.068054
 30
0.0
 10
15.740866
 20
13.833289
 30
0.0
 10
15.891063
 20
13.566669
 30
0.0
 10
15.988654
 20
13.277717
 30
0.0
 10
16.027294
 20
12.975986
 30
0.0
 10
16.000641
 20
12.671107
 30
0.0
 10
15.925403
 20
12.242562
 30
0.0
 10
15.757122
 20
11.846507
 30
0.0
 10
15.509732
 20
11.491780
 30
0.0
 10
15.197162
 20
11.187350
 30
0.0
 10
14.833344
 20
10.942082
 30
0.0
 10
14.432209
 20
10.764890
 30
0.0
 10
14.007689
 20
10.664692
 30
0.0
 10
13.573716
 20
10.650405
 30
0.0
 10
13.000897
 20
10.728695
 30
0.0
 10
12.460952
 20
10.920042
 30
0.0
 10
11.967071
 20
11.210290
 30
0.0
 10
11.532445
 20
11.585284
 30
0.0
 10
11.170265
 20
12.030895
 30
0.0
 10
10.893721
 20
12.532968
 30
0.0
 10
10.716004
 20
13.077348
 30
0.0
 10
10.650306
 20
13.649880
 30
0.0
 10
10.671417
 20
14.346528
 30
0.0
 10
10.835458
 20
15.015554
 30
0.0
 10
11.125525
 20
15.641134
 30
0.0
 10
11.524713
 20
16.207528
 30
0.0
 10
12.016118
 20
16.698912
 30
0.0
 10
12.582835
 20
17.099491
 30
0.0
 10
13.207959
 20
17.393523
 30
0.0
 10
13.874586
 20
17.565158
 30
0.0
 10
14.315092
 20
17.611460
 30
0.0
 10
14.758993
 20
17.616222
 30
0.0
 10
15.201940
 20
17.579128
 30
0.0
 10
15.639581
 20
17.500097
 30
0.0
 10
16.067565
 20
17.378997
 30
0.0
 10
16.481543
 20
17.215696
 30
0.0
 10
16.877163
 20
17.010036
 30
0.0
 10
17.250074
 20
16.761856
 30
0.0
 10
17.608427
 20
16.473990
 30
0.0
 10
17.936904
 20
16.153077
 30
0.0
 10
18.233025
 20
15.802398
 30
0.0
 10
18.494310
 20
15.425261
 30
0.0
 10
18.718279
 20
15.024920
 30
0.0
 10
18.902453
 20
14.604656
 30
0.0
 10
19.044352
 20
14.167776
 30
0.0
 10
19.141495
 20
13.717561
 30
0.0
 10
19.148102
 20
13.379344
 30
0.0
 10
19.157423
 20
13.038269
 30
0.0
 10
19.162373
 20
12.696163
 30
0.0
 10
19.155865
 20
12.354798
 30
0.0
 10
19.130808
 20
12.015946
 30
0.0
 10
19.080118
 20
11.681407
 30
0.0
 10
18.996706
 20
11.352979
 30
0.0
 10
18.873486
 20
11.032463
 30
0.0
 10
18.541570
 20
10.306341
 30
0.0
 10
18.105153
 20
9.640914
 30
0.0
 10
17.577088
 20
9.046395
 30
0.0
 10
16.970232
 20
8.532865
 30
0.0
 10
16.297440
 20
8.110484
 30
0.0
 10
15.571567
 20
7.789359
 30
0.0
 10
14.805470
 20
7.579704
 30
0.0
 10
14.012003
 20
7.491571
 30
0.0
 10
13.080036
 20
7.495804
 30
0.0
 10
12.164716
 20
7.653284
 30
0.0
 10
11.283856
 20
7.951814
 30
0.0
 10
10.455273
 20
8.379354
 30
0.0
 10
9.696782
 20
8.923840
 30
0.0
 10
9.026200
 20
9.573233
 30
0.0
 10
8.461340
 20
10.315416
 30
0.0
 10
8.020020
 20
11.138376
 30
0.0
 10
7.719385
 20
11.914610
 30
0.0
 10
7.530201
 20
12.729501
 30
0.0
 10
7.449567
 20
13.568203
 30
0.0
 10
7.474589
 20
14.415849
 30
0.0
 10
7.602365
 20
15.257594
 30
0.0
 10
7.829999
 20
16.078544
 30
0.0
 10
8.154593
 20
16.863880
 30
0.0
 10
8.573249
 20
17.598734
 30
0.0
 10
9.112700
 20
18.327370
 30
0.0
 10
9.742223
 20
18.977504
 30
0.0
 10
10.449166
 20
19.541675
 30
0.0
 10
11.220880
 20
20.012395
 30
0.0
 10
12.044714
 20
20.382203
 30
0.0
 10
12.908019
 20
20.643611
 30
0.0
 10
13.798142
 20
20.789185
 30
0.0
 10
14.702435
 20
20.811410
 30
0.0
 10
15.842616
 20
20.728860
 30
0.0
 10
16.950174
 20
20.461816
 30
0.0
 10
18.005857
 20
20.027000
 30
0.0
 10
18.990410
 20
19.441186
 30
0.0
 10
19.884580
 20
18.721122
 30
0.0
 10
20.669114
 20
17.883557
 30
0.0
 10
21.324758
 20
16.945239
 30
0.0
 10
21.832259
 20
15.922889
 30
0.0
 10
21.989525
 20
15.520458
 30
0.0
 10
22.119649
 20
15.110962
 30
0.0
 10
22.223603
 20
14.695328
 30
0.0
 10
22.302356
 20
14.274588
 30
0.0
 10
22.356881
 20
13.849641
 30
0.0
 10
22.388148
 20
13.421518
 30
0.0
 10
22.397128
 20
12.991147
 30
0.0
 10
22.384793
 20
12.559532
 30
0.0
 10
22.331454
 20
11.788325
 30
0.0
 10
22.200215
 20
11.027357
 30
0.0
 10
21.995754
 20
10.281814
 30
0.0
 10
21.722748
 20
9.556961
 30
0.0
 10
21.385876
 20
8.857959
 30
0.0
 10
20.989815
 20
8.190044
 30
0.0
 10
20.539244
 20
7.558458
 30
0.0
 10
20.038841
 20
6.968357
 30
0.0
 10
19.223927
 20
6.198976
 30
0.0
 10
18.314713
 20
5.552995
 30
0.0
 10
17.328893
 20
5.033380
 30
0.0
 10
16.284160
 20
4.643093
 30
0.0
 10
15.198209
 20
4.385045
 30
0.0
 10
14.088733
 20
4.262226
 30
0.0
 10
12.973425
 20
4.277571
 30
0.0
 10
11.869980
 20
4.433993
 30
0.0
 10
10.710427
 20
4.739798
 30
0.0
 10
9.601583
 20
5.194538
 30
0.0
 10
8.558399
 20
5.786120
 30
0.0
 10
7.595827
 20
6.502506
 30
0.0
 10
6.728817
 20
7.331604
 30
0.0
 10
5.972323
 20
8.261323
 30
0.0
 10
5.341294
 20
9.279652
 30
0.0
 10
4.850683
 20
10.374444
 30
0.0
 10
4.425395
 20
11.820869
 30
0.0
 10
4.242090
 20
13.309758
 30
0.0
 10
4.289887
 20
14.809893
 30
0.0
 10
4.557907
 20
16.290157
 30
0.0
 10
5.035269
 20
17.719357
 30
0.0
 10
5.711094
 20
19.066298
 30
0.0
 10
6.574501
 20
20.299838
 30
0.0
 10
7.614609
 20
21.388784
 30
0.0
 10
8.276499
 20
21.935863
 30
0.0
 10
8.980921
 20
22.426189
 30
0.0
 10
9.722853
 20
22.856930
 30
0.0
 10
10.497269
 20
23.225177
 30
0.0
 10
11.299145
 20
23.528099
 30
0.0
 10
12.123459
 20
23.762811
 30
0.0
 10
12.965185
 20
23.926482
 30
0.0
 10
13.819299
 20
24.016255
 30
0.0
 10
14.364913
 20
24.035305
 30
0.0
 10
14.909877
 20
24.029749
 30
0.0
 10
15.453105
 20
23.999084
 30
0.0
 10
15.993511
 20
23.942331
 30
0.0
 10
16.530009
 20
23.858696
 30
0.0
 10
17.061513
 20
23.747359
 30
0.0
 10
17.586937
 20
23.607474
 30
0.0
 10
18.105194
 20
23.438220
 30
0.0
 10
19.258556
 20
22.976099
 30
0.0
 10
20.351736
 20
22.384967
 30
0.0
 10
21.372760
 20
21.675142
 30
0.0
 10
22.309654
 20
20.856971
 30
0.0
 10
23.150441
 20
19.940746
 30
0.0
 10
23.883148
 20
18.936811
 30
0.0
 10
24.495800
 20
17.855459
 30
0.0
 10
24.976422
 20
16.707008
 30
0.0
 10
25.401673
 20
15.196343
 30
0.0
 10
25.603393
 20
13.644985
 30
0.0
 10
25.589746
 20
12.080081
 30
0.0
 10
25.368892
 20
10.528749
 30
0.0
 10
24.948991
 20
9.018111
 30
0.0
 10
24.338206
 20
7.575312
 30
0.0
 10
23.544697
 20
6.227471
 30
0.0
 10
22.576626
 20
5.001762
 30
0.0
 10
22.223742
 20
4.625816
 30
0.0
 10
21.857405
 20
4.261564
 30
0.0
 10
21.477199
 20
3.911256
 30
0.0
 10
21.082709
 20
3.577193
 30
0.0
 10
20.673519
 20
3.261598
 30
0.0
 10
20.249213
 20
2.966799
 30
0.0
 10
19.809377
 20
2.694993
 30
0.0
 10
19.353593
 20
2.448507
 30
0.0
 10
18.572625
 20
2.069729
 30
0.0
 10
17.765192
 20
1.747440
 30
0.0
 10
16.935950
 20
1.483439
 30
0.0
 10
16.089558
 20
1.279525
 30
0.0
 10
15.230672
 20
1.137576
 30
0.0
 10
14.363951
 20
1.059391
 30
0.0
 10
13.494052
 20
1.046691
 30
0.0
 10
12.625632
 20
1.101513
 30
0.0
 10
11.079280
 20
1.324742
 30
0.0
 10
9.577555
 20
1.743181
 30
0.0
 10
8.139654
 20
2.343811
 30
0.0
 10
6.784770
 20
3.113643
 30
0.0
 10
5.532098
 20
4.039685
 30
0.0
 10
4.400831
 20
5.108919
 30
0.0
 10
3.410165
 20
6.308328
 30
0.0
 10
2.579294
 20
7.624921
 30
0.0
 10
2.167367
 20
8.432006
 30
0.0
 10
1.820020
 20
9.266740
 30
0.0
 10
1.536690
 20
10.124334
 30
0.0
 10
1.316816
 20
11.000105
 30
0.0
 10
1.159835
 20
11.889237
 30
0.0
 10
1.065184
 20
12.787048
 30
0.0
 10
1.032302
 20
13.688748
 30
0.0
 10
1.060625
 20
14.589601
 30
0.0
 10
1.255884
 20
16.248168
 30
0.0
 10
1.665235
 20
17.865936
 30
0.0
 10
2.274534
 20
19.420945
 30
0.0
 10
3.069639
 20
20.891208
 30
0.0
 10
4.036406
 20
22.254792
 30
0.0
 10
5.160690
 20
23.489708
 30
0.0
 10
6.428349
 20
24.573997
 30
0.0
 10
7.825240
 20
25.485698
 30
0.0
 10
8.532694
 20
25.865243
 30
0.0
 10
9.260091
 20
26.199253
 30
0.0
 10
10.004924
 20
26.487860
 30
0.0
 10
10.764684
 20
26.731198
 30
0.0
 10
11.536864
 20
26.929344
 30
0.0
 10
12.318954
 20
27.082458
 30
0.0
 10
13.108447
 20
27.190647
 30
0.0
 10
13.902835
 20
27.254041
 30
0.0
 10
14.699609
 20
27.272826
 30
0.0
 10
15.496261
 20
27.246897
 30
0.0
 10
16.290284
 20
27.176597
 30
0.0
 10
17.079168
 20
27.062006
 30
0.0
 10
17.860406
 20
26.903203
 30
0.0
 10
18.631489
 20
26.700321
 30
0.0
 10
19.389910
 20
26.453491
 30
0.0
 10
20.133160
 20
26.162846
 30
0.0
 10
20.238483
 20
26.125117
 30
0.0
 10
20.354757
 20
26.069713
 30
0.0
 10
20.475953
 20
26.010446
 30
0.0
 10
20.596038
 20
25.961287
 30
0.0
 10
20.708983
 20
25.936151
 30
0.0
 10
20.808756
 20
25.948851
 30
0.0
 10
20.889326
 20
26.013304
 30
0.0
 10
20.944663
 20
26.143373
 30
0.0
 10
20.986670
 20
26.218567
 30
0.0
 10
21.019151
 20
26.301964
 30
0.0
 10
21.039043
 20
26.389065
 30
0.0
 10
21.043284
 20
26.475345
 30
0.0
 10
21.028814
 20
26.556255
 30
0.0
 10
20.992567
 20
26.627296
 30
0.0
 10
20.931482
 20
26.683890
 30
0.0
 10
20.842498
 20
26.721567
 30
0.0
 10
20.084952
 20
27.042850
 30
0.0
 10
19.310763
 20
27.322674
 30
0.0
 10
18.522365
 20
27.560243
 30
0.0
 10
17.722191
 20
27.754712
 30
0.0
 10
16.912673
 20
27.905260
 30
0.0
 10
16.096243
 20
28.011040
 30
0.0
 10
15.275335
 20
28.071206
 30
0.0
 10
14.452381
 20
28.084965
 30
0.0
 10
14.452381
 20
28.084965
 30
0.0
 10
14.452381
 20
28.084938
 30
0.0
 10
14.452381
 20
28.084938
 30
0.0
 10
14.452381
 20
28.084938
 30
0.0
 10
14.452381
 20
28.084938
 30
0.0
 10
14.452381
 20
28.084912
 30
0.0
 10
14.452381
 20
28.084912
 30
0.0
  0
ENDSEC
  0
SECTION
  2
OBJECTS
  0
DICTIONARY
  5
C
330
0
100
AcDbDictionary
  3
ACAD_GROUP
350
D
  3
ACAD_MLINESTYLE
350
17
  0
DICTIONARY
  5
D
330
C
100
AcDbDictionary
  0
DICTIONARY
  5
1A
330
C
100
AcDbDictionary
  0
DICTIONARY
  5
17
330
C
100
AcDbDictionary
  3
STANDARD
350
18
  0
DICTIONARY
  5
19
330
C
100
AcDbDictionary
  0
ENDSEC
  0
EOF
