<?xml version="1.0" encoding="UTF-8" standalone="no"?>
<svg
   xmlns:dc="http://purl.org/dc/elements/1.1/"
   xmlns:cc="http://creativecommons.org/ns#"
   xmlns:rdf="http://www.w3.org/1999/02/22-rdf-syntax-ns#"
   xmlns:svg="http://www.w3.org/2000/svg"
   xmlns="http://www.w3.org/2000/svg"
   width="210mm"
   height="297mm"
   viewBox="0 0 210 297"
   version="1.1"
   id="svg8">
  <defs
     id="defs2" />
  <metadata
     id="metadata5">
    <rdf:RDF>
      <cc:Work
         rdf:about="">
        <dc:format>image/svg+xml</dc:format>
        <dc:type
           rdf:resource="http://purl.org/dc/dcmitype/StillImage" />
        <dc:title></dc:title>
      </cc:Work>
    </rdf:RDF>
  </metadata>
  <g
     transform="translate(-81.423697,226.92953)"
     id="layer1">
    <path
       style="fill:none;fill-rule:evenodd;stroke:#000000;stroke-width:0.26458332"
       id="path3781"
       d="m 95.548859,56.724693 c 0.466431,0.05195 0.160091,0.654371 -0.08635,0.775239 -0.667832,0.327546 -1.339842,-0.326 -1.464132,-0.947932 -0.222324,-1.112491 0.760821,-2.04973 1.809519,-2.153024 1.539007,-0.151589 2.772799,1.198699 2.841916,2.671105 0.09212,1.962484 -1.637292,3.501012 -3.532691,3.530808 -2.385165,0.03749 -4.231792,-2.076134 -4.2197,-4.394277 0.01464,-2.807581 2.515098,-4.964039 5.255863,-4.908593 3.229896,0.06534 5.697206,2.954136 5.597486,6.117449 -0.11513,3.652171 -3.393223,6.430985 -6.979036,6.286378 -4.074429,-0.164313 -7.165194,-3.832344 -6.97527,-7.840621 0.213066,-4.496682 4.271491,-7.899715 8.702207,-7.664162 4.918939,0.261508 8.634479,4.71066 8.353059,9.563792 -0.30972,5.341188 -5.149849,9.369408 -10.425383,9.041947 -5.763445,-0.357746 -10.104486,-5.589042 -9.730839,-11.286964 0.405633,-6.185705 6.02825,-10.839678 12.14855,-10.419732 6.607972,0.453407 11.574962,6.467468 11.108622,13.010137 -0.50108,7.030232 -6.90669,12.31032 -13.871721,11.797516 C 86.62846,69.355064 81.035216,62.557834 81.594551,55.17045 c 0.596237,-7.87477 7.785161,-13.781219 15.594895,-13.1753 1.873247,0.145336 3.714624,0.650153 5.401884,1.476377" />
    <path
       style="fill:none;fill-rule:evenodd;stroke:#000000;stroke-width:0.26458332"
       id="path3783"
       d="m 95.548859,56.724693 c -0.441792,0.199162 -0.486431,-0.497266 -0.331021,-0.734286 0.421153,-0.642309 1.362037,-0.415026 1.799593,0.07225 0.782684,0.871615 0.402023,2.221535 -0.475512,2.864898 -1.287818,0.944161 -3.094356,0.393236 -3.930204,-0.878777 -1.114054,-1.695393 -0.386521,-3.972124 1.282043,-4.995511 2.099716,-1.287827 4.852303,-0.380932 6.060817,1.685309 1.463675,2.502495 0.376005,5.733851 -2.088575,7.126123 -2.904425,1.640745 -6.616253,0.371502 -8.191429,-2.49184 -1.818603,-3.305842 -0.367274,-7.499227 2.895106,-9.256736 3.706924,-1.996993 8.382603,-0.363241 10.322043,3.298372 2.17576,4.107777 0.35935,9.266265 -3.701639,11.387348 -4.508466,2.354804 -10.150149,0.355563 -12.452654,-4.104903 -2.534056,-4.909033 -0.351857,-11.034203 4.508169,-13.51796 5.309508,-2.71347 11.918384,-0.348214 14.583264,4.911434 2.89301,5.709911 0.34462,12.802681 -5.3147,15.648573 -6.110255,3.072654 -13.687058,0.341068 -16.713877,-5.717967 -3.25238,-6.510556 -0.337548,-14.571509 6.121232,-17.779184 3.855414,-1.914745 8.481909,-1.887502 12.337945,0.01063" />
    <path
       style="fill:none;stroke:#000000;stroke-width:0.26458333;stroke-linecap:butt;stroke-linejoin:miter;stroke-opacity:1;stroke-miterlimit:4;stroke-dasharray:none"
       d="m 102.25946,44.252462 0.33187,-0.780937"
       id="path3799" />
    <path
       transform="matrix(0.26458333,0,0,0.26458333,81.423697,-226.92953)"
       id="path4603"
       d="m 54.623177,1016.3736 c -19.552305,0.1585 -38.507938,11.6991 -47.6741198,28.9642 -3.4289989,6.4804 -5.7770991,13.6596 -6.15408132,21.0112 -0.0940882,4.9397 -0.23389622,9.9478 1.04788292,14.7678 3.7240071,17.3585 16.8773842,32.3813 33.7023132,38.1382 6.524391,2.3262 13.542237,3.0468 20.424161,2.3886 17.851845,-1.5773 34.361157,-13.7474 40.957069,-30.4434 4.933688,-12.0682 4.289188,-26.2314 -1.662078,-37.8243 -6.008351,-12.1881 -17.651055,-21.5398 -31.018846,-24.2694 -12.375354,-2.7477 -25.790792,0.5743 -35.677284,8.4426 -9.965361,7.722 -16.32969,20.0789 -16.139316,32.7586 -0.01213,13.6246 7.461777,26.9196 19.051832,34.0605 10.124212,6.4302 23.393351,7.5737 34.412191,2.7835 9.951123,-4.1829 18.032339,-12.7811 21.10705,-23.1843 1.610149,-5.1769 1.799783,-10.7661 0.908996,-16.0939 -2.390732,-13.573 -13.659197,-25.3195 -27.386885,-27.4992 -9.748049,-1.7215 -20.148374,1.6041 -27.159788,8.5743 -5.443297,5.1958 -8.897072,12.4603 -9.132883,20.0137 -0.686138,12.3423 7.701433,24.7126 19.641118,28.2081 9.582791,3.1935 20.770139,-0.2631 27.194268,-7.9701 6.481974,-7.4315 7.551326,-19.1922 2.019773,-27.4529 -4.197607,-6.7357 -12.321068,-10.9872 -20.273998,-9.8734 -6.936387,0.8062 -13.213467,5.6405 -15.746883,12.1457 -2.170225,5.7261 -1.114196,12.5855 3.01048,17.1798 4.00009,4.7881 11.19542,6.937 16.962443,4.1914 4.998314,-2.1133 8.840575,-7.6056 7.795168,-13.1511 -0.689441,-4.8381 -5.075913,-9.265 -10.159727,-8.8332 -3.702488,0.2393 -7.556676,3.4748 -7.113368,7.4238 0.299734,2.2746 2.35824,4.8103 4.857339,4.3306 1.011402,-0.2721 2.382798,-1.73 1.436962,-2.7007 -0.647498,-0.4339 -1.84903,0.099 -1.95509,-1.026 -0.784308,-2.2089 1.746512,-4.1761 3.815749,-3.6606 3.111167,0.4852 5.380254,3.7996 4.761268,6.8564 -0.242635,4.4528 -4.797882,7.9557 -9.172632,7.6375 -5.894637,-0.1719 -10.995764,-5.4717 -11.049108,-11.3366 -0.564305,-7.1076 5.315143,-13.7376 12.186253,-14.7979 4.408016,-0.6759 9.128326,0.3205 12.757752,3.0365 3.753974,2.7237 6.403464,6.9122 7.148677,11.506 0.02909,3.3885 0.453363,6.9637 -1.012962,10.1484 -2.775474,7.5905 -10.282225,13.1414 -18.374108,13.3829 -9.417078,0.7687 -18.881323,-5.1227 -22.646866,-13.7835 -3.601387,-7.5787 -2.592859,-17.3151 2.090942,-24.4171 4.940588,-7.7142 14.02239,-12.5649 23.165428,-12.1424 11.591299,-0.154 22.643629,7.8053 26.947367,18.4763 1.72508,4.017 2.3168,8.3586 2.088316,12.7119 -0.129309,7.8069 -3.587745,15.4113 -8.866593,21.132 -7.678648,8.3665 -19.872324,11.8763 -30.874434,9.5788 -11.892142,-2.291 -22.342732,-11.0729 -26.529628,-22.4521 -5.542358,-14.2595 -0.890563,-31.4871 10.446336,-41.629 6.439794,-5.7903 14.796849,-9.408 23.450796,-9.9306 5.498725,-0.3115 11.015042,0.3281 16.19866,2.1846 11.887482,3.973 21.831505,13.5625 25.969996,25.4408 5.439852,14.9293 1.539103,32.5931 -9.070098,44.2403 -3.490232,3.8403 -7.50606,7.3009 -12.181543,9.6501 -7.722151,4.0959 -16.699039,5.989 -25.428513,5.0907 -15.745702,-1.2224 -30.466025,-10.839 -37.9704134,-24.6554 -4.4790382,-7.9793 -6.3318668,-17.2638 -5.7398506,-26.3232 0.8415564,-16.848 10.884427,-32.937 25.567047,-41.1821 14.042629,-8.1105 31.705832,-8.8591 46.518127,-2.5593 0.986065,0.2442 2.656796,1.7626 3.067095,0.074 0.461101,-0.7011 0.661603,-1.9163 -0.386135,-2.1853 -7.543074,-3.444 -15.855147,-5.2512 -24.151624,-5.153 z"
       style="opacity:1;fill:#000000;stroke-width:0.21020691;stroke-miterlimit:4;stroke-dasharray:none;stroke-opacity:1" />
  </g>
</svg>
