  0
SECTION
  2
BLOCKS
  0
ENDSEC
  0
SECTION
  2
ENTITIES
  0
LINE
  8
0
 10
40.4258
 20
3.03369
 11
40.8235
 21
3.1629
  0
LINE
  8
0
 10
40.8235
 20
3.1629
 11
41.1856
 21
3.37196
  0
LINE
  8
0
 10
41.1856
 20
3.37196
 11
41.4963
 21
3.65173
  0
LINE
  8
0
 10
41.4963
 20
3.65173
 11
41.7421
 21
3.98999
  0
LINE
  8
0
 10
41.7421
 20
3.98999
 11
41.9121
 21
4.37196
  0
LINE
  8
0
 10
41.9121
 20
4.37196
 11
41.9879
 21
4.72865
  0
LINE
  8
0
 10
41.9879
 20
4.72865
 11
41.0086
 21
145
  0
LINE
  8
0
 10
41.0086
 20
145
 11
40.9617
 21
145
  0
LINE
  8
0
 10
40.9617
 20
145
 11
40.9628
 21
145.01
  0
LINE
  8
0
 10
40.9628
 20
145.01
 11
40.9191
 21
145.426
  0
LINE
  8
0
 10
40.9191
 20
145.426
 11
40.7899
 21
145.823
  0
LINE
  8
0
 10
40.7899
 20
145.823
 11
40.5808
 21
146.186
  0
LINE
  8
0
 10
40.5808
 20
146.186
 11
40.3011
 21
146.496
  0
LINE
  8
0
 10
40.3011
 20
146.496
 11
39.9628
 21
146.742
  0
LINE
  8
0
 10
39.9628
 20
146.742
 11
39.5808
 21
146.912
  0
LINE
  8
0
 10
39.5808
 20
146.912
 11
39.1719
 21
146.999
  0
LINE
  8
0
 10
39.1719
 20
146.999
 11
38.9528
 21
146.999
  0
LINE
  8
0
 10
38.9528
 20
146.999
 11
38.9528
 21
147
  0
LINE
  8
0
 10
38.9528
 20
147
 11
5.94205
 21
147
  0
LINE
  8
0
 10
5.94205
 20
147
 11
5.62135
 21
146.966
  0
LINE
  8
0
 10
5.62135
 20
146.966
 11
5.22371
 21
146.837
  0
LINE
  8
0
 10
5.22371
 20
146.837
 11
4.86162
 21
146.628
  0
LINE
  8
0
 10
4.86162
 20
146.628
 11
4.55089
 21
146.348
  0
LINE
  8
0
 10
4.55089
 20
146.348
 11
4.30513
 21
146.01
  0
LINE
  8
0
 10
4.30513
 20
146.01
 11
4.13507
 21
145.628
  0
LINE
  8
0
 10
4.13507
 20
145.628
 11
4.04814
 21
145.219
  0
LINE
  8
0
 10
4.04814
 20
145.219
 11
4.04814
 21
145
  0
LINE
  8
0
 10
4.04814
 20
145
 11
3.99135
 21
145
  0
LINE
  8
0
 10
3.99135
 20
145
 11
3.01239
 21
4.77684
  0
LINE
  8
0
 10
3.01239
 20
4.77684
 11
3.03369
 21
4.57417
  0
LINE
  8
0
 10
3.03369
 20
4.57417
 11
3.1629
 21
4.17651
  0
LINE
  8
0
 10
3.1629
 20
4.17651
 11
3.37196
 21
3.81442
  0
LINE
  8
0
 10
3.37196
 20
3.81442
 11
3.65173
 21
3.50371
  0
LINE
  8
0
 10
3.65173
 20
3.50371
 11
3.98999
 21
3.25795
  0
LINE
  8
0
 10
3.98999
 20
3.25795
 11
4.37196
 21
3.08788
  0
LINE
  8
0
 10
4.37196
 20
3.08788
 11
4.78093
 21
3.00095
  0
LINE
  8
0
 10
4.78093
 20
3.00095
 11
5
 21
3.00095
  0
LINE
  8
0
 10
5
 20
3.00095
 11
5
 21
3
  0
LINE
  8
0
 10
5
 20
3
 11
40.1051
 21
3
  0
LINE
  8
0
 10
40.1051
 20
3
 11
40.4258
 21
3.03369
  0
LINE
  8
0
 10
22.4
 20
75
 11
22.5
 21
75.1
  0
LINE
  8
0
 10
22.5
 20
75.1
 11
22.6
 21
75
  0
LINE
  8
0
 10
22.6
 20
75
 11
22.5
 21
74.9
  0
LINE
  8
0
 10
22.5
 20
74.9
 11
22.4
 21
75
  0
LINE
  8
0
 10
21.8728
 20
5.03287
 11
20.6459
 21
5.29366
  0
LINE
  8
0
 10
20.6459
 20
5.29366
 11
19.5
 21
5.80383
  0
LINE
  8
0
 10
19.5
 20
5.80383
 11
18.4852
 21
6.54112
  0
LINE
  8
0
 10
18.4852
 20
6.54112
 11
17.6459
 21
7.47328
  0
LINE
  8
0
 10
17.6459
 20
7.47328
 11
17.0187
 21
8.55957
  0
LINE
  8
0
 10
17.0187
 20
8.55957
 11
16.6311
 21
9.75252
  0
LINE
  8
0
 10
16.6311
 20
9.75252
 11
16.5
 21
11
  0
LINE
  8
0
 10
16.5
 20
11
 11
16.6311
 21
12.2475
  0
LINE
  8
0
 10
16.6311
 20
12.2475
 11
17.0187
 21
13.4404
  0
LINE
  8
0
 10
17.0187
 20
13.4404
 11
17.6459
 21
14.5267
  0
LINE
  8
0
 10
17.6459
 20
14.5267
 11
18.4852
 21
15.4589
  0
LINE
  8
0
 10
18.4852
 20
15.4589
 11
19.5
 21
16.1962
  0
LINE
  8
0
 10
19.5
 20
16.1962
 11
20.6459
 21
16.7063
  0
LINE
  8
0
 10
20.6459
 20
16.7063
 11
21.8728
 21
16.9671
  0
LINE
  8
0
 10
21.8728
 20
16.9671
 11
23.1272
 21
16.9671
  0
LINE
  8
0
 10
23.1272
 20
16.9671
 11
24.3541
 21
16.7063
  0
LINE
  8
0
 10
24.3541
 20
16.7063
 11
25.5
 21
16.1962
  0
LINE
  8
0
 10
25.5
 20
16.1962
 11
26.5148
 21
15.4589
  0
LINE
  8
0
 10
26.5148
 20
15.4589
 11
27.3541
 21
14.5267
  0
LINE
  8
0
 10
27.3541
 20
14.5267
 11
27.9813
 21
13.4404
  0
LINE
  8
0
 10
27.9813
 20
13.4404
 11
28.3689
 21
12.2475
  0
LINE
  8
0
 10
28.3689
 20
12.2475
 11
28.5
 21
11
  0
LINE
  8
0
 10
28.5
 20
11
 11
28.3689
 21
9.75252
  0
LINE
  8
0
 10
28.3689
 20
9.75252
 11
27.9813
 21
8.55957
  0
LINE
  8
0
 10
27.9813
 20
8.55957
 11
27.3541
 21
7.47328
  0
LINE
  8
0
 10
27.3541
 20
7.47328
 11
26.5148
 21
6.54112
  0
LINE
  8
0
 10
26.5148
 20
6.54112
 11
25.5
 21
5.80383
  0
LINE
  8
0
 10
25.5
 20
5.80383
 11
24.3541
 21
5.29366
  0
LINE
  8
0
 10
24.3541
 20
5.29366
 11
23.1272
 21
5.03287
  0
LINE
  8
0
 10
23.1272
 20
5.03287
 11
21.8728
 21
5.03287
  0
ENDSEC
  0
SECTION
  2
OBJECTS
  0
DICTIONARY
  0
ENDSEC
  0
EOF
