  0
SECTION
  2
BLOCKS
  0
ENDSEC
  0
SECTION
  2
ENTITIES
  0
LINE
  8
0
 10
40.5298
 20
2.54462
 11
41.0268
 21
2.70613
  0
LINE
  8
0
 10
41.0268
 20
2.70613
 11
41.4795
 21
2.96745
  0
LINE
  8
0
 10
41.4795
 20
2.96745
 11
41.8679
 21
3.31717
  0
LINE
  8
0
 10
41.8679
 20
3.31717
 11
42.1751
 21
3.73999
  0
LINE
  8
0
 10
42.1751
 20
3.73999
 11
42.3876
 21
4.21745
  0
LINE
  8
0
 10
42.3876
 20
4.21745
 11
42.4848
 21
4.67464
  0
LINE
  8
0
 10
42.4848
 20
4.67464
 11
41.5051
 21
145
  0
LINE
  8
0
 10
41.5051
 20
145
 11
41.4617
 21
145
  0
LINE
  8
0
 10
41.4617
 20
145
 11
41.4628
 21
145.01
  0
LINE
  8
0
 10
41.4628
 20
145.01
 11
41.4082
 21
145.53
  0
LINE
  8
0
 10
41.4082
 20
145.53
 11
41.2467
 21
146.027
  0
LINE
  8
0
 10
41.2467
 20
146.027
 11
40.9854
 21
146.479
  0
LINE
  8
0
 10
40.9854
 20
146.479
 11
40.6356
 21
146.868
  0
LINE
  8
0
 10
40.6356
 20
146.868
 11
40.2128
 21
147.175
  0
LINE
  8
0
 10
40.2128
 20
147.175
 11
39.7354
 21
147.388
  0
LINE
  8
0
 10
39.7354
 20
147.388
 11
39.2241
 21
147.496
  0
LINE
  8
0
 10
39.2241
 20
147.496
 11
38.9528
 21
147.496
  0
LINE
  8
0
 10
38.9528
 20
147.496
 11
38.9528
 21
147.5
  0
LINE
  8
0
 10
38.9528
 20
147.5
 11
5.94205
 21
147.5
  0
LINE
  8
0
 10
5.94205
 20
147.5
 11
5.51741
 21
147.455
  0
LINE
  8
0
 10
5.51741
 20
147.455
 11
5.02034
 21
147.294
  0
LINE
  8
0
 10
5.02034
 20
147.294
 11
4.56772
 21
147.033
  0
LINE
  8
0
 10
4.56772
 20
147.033
 11
4.17932
 21
146.683
  0
LINE
  8
0
 10
4.17932
 20
146.683
 11
3.87212
 21
146.26
  0
LINE
  8
0
 10
3.87212
 20
146.26
 11
3.65955
 21
145.783
  0
LINE
  8
0
 10
3.65955
 20
145.783
 11
3.55087
 21
145.271
  0
LINE
  8
0
 10
3.55087
 20
145.271
 11
3.55087
 21
145
  0
LINE
  8
0
 10
3.55087
 20
145
 11
3.49484
 21
145
  0
LINE
  8
0
 10
3.49484
 20
145
 11
2.51567
 21
4.74568
  0
LINE
  8
0
 10
2.51567
 20
4.74568
 11
2.54462
 21
4.47021
  0
LINE
  8
0
 10
2.54462
 20
4.47021
 11
2.70613
 21
3.97314
  0
LINE
  8
0
 10
2.70613
 20
3.97314
 11
2.96745
 21
3.52052
  0
LINE
  8
0
 10
2.96745
 20
3.52052
 11
3.31717
 21
3.13213
  0
LINE
  8
0
 10
3.31717
 20
3.13213
 11
3.73999
 21
2.82494
  0
LINE
  8
0
 10
3.73999
 20
2.82494
 11
4.21745
 21
2.61235
  0
LINE
  8
0
 10
4.21745
 20
2.61235
 11
4.72867
 21
2.50369
  0
LINE
  8
0
 10
4.72867
 20
2.50369
 11
5
 21
2.50369
  0
LINE
  8
0
 10
5
 20
2.50369
 11
5
 21
2.5
  0
LINE
  8
0
 10
5
 20
2.5
 11
40.1051
 21
2.5
  0
LINE
  8
0
 10
40.1051
 20
2.5
 11
40.5298
 21
2.54462
  0
LINE
  8
0
 10
21.9251
 20
5.53012
 11
20.8004
 21
5.76918
  0
LINE
  8
0
 10
20.8004
 20
5.76918
 11
19.75
 21
6.23685
  0
LINE
  8
0
 10
19.75
 20
6.23685
 11
18.8198
 21
6.91269
  0
LINE
  8
0
 10
18.8198
 20
6.91269
 11
18.0504
 21
7.76717
  0
LINE
  8
0
 10
18.0504
 20
7.76717
 11
17.4755
 21
8.76294
  0
LINE
  8
0
 10
17.4755
 20
8.76294
 11
17.1202
 21
9.85648
  0
LINE
  8
0
 10
17.1202
 20
9.85648
 11
17
 21
11
  0
LINE
  8
0
 10
17
 20
11
 11
17.1202
 21
12.1435
  0
LINE
  8
0
 10
17.1202
 20
12.1435
 11
17.4755
 21
13.237
  0
LINE
  8
0
 10
17.4755
 20
13.237
 11
18.0504
 21
14.2328
  0
LINE
  8
0
 10
18.0504
 20
14.2328
 11
18.8198
 21
15.0873
  0
LINE
  8
0
 10
18.8198
 20
15.0873
 11
19.75
 21
15.7631
  0
LINE
  8
0
 10
19.75
 20
15.7631
 11
20.8004
 21
16.2308
  0
LINE
  8
0
 10
20.8004
 20
16.2308
 11
21.9251
 21
16.4699
  0
LINE
  8
0
 10
21.9251
 20
16.4699
 11
23.0749
 21
16.4699
  0
LINE
  8
0
 10
23.0749
 20
16.4699
 11
24.1996
 21
16.2308
  0
LINE
  8
0
 10
24.1996
 20
16.2308
 11
25.25
 21
15.7631
  0
LINE
  8
0
 10
25.25
 20
15.7631
 11
26.1802
 21
15.0873
  0
LINE
  8
0
 10
26.1802
 20
15.0873
 11
26.9496
 21
14.2328
  0
LINE
  8
0
 10
26.9496
 20
14.2328
 11
27.5245
 21
13.237
  0
LINE
  8
0
 10
27.5245
 20
13.237
 11
27.8798
 21
12.1435
  0
LINE
  8
0
 10
27.8798
 20
12.1435
 11
28
 21
11
  0
LINE
  8
0
 10
28
 20
11
 11
27.8798
 21
9.85648
  0
LINE
  8
0
 10
27.8798
 20
9.85648
 11
27.5245
 21
8.76294
  0
LINE
  8
0
 10
27.5245
 20
8.76294
 11
26.9496
 21
7.76717
  0
LINE
  8
0
 10
26.9496
 20
7.76717
 11
26.1802
 21
6.91269
  0
LINE
  8
0
 10
26.1802
 20
6.91269
 11
25.25
 21
6.23685
  0
LINE
  8
0
 10
25.25
 20
6.23685
 11
24.1996
 21
5.76918
  0
LINE
  8
0
 10
24.1996
 20
5.76918
 11
23.0749
 21
5.53012
  0
LINE
  8
0
 10
23.0749
 20
5.53012
 11
21.9251
 21
5.53012
  0
ENDSEC
  0
SECTION
  2
OBJECTS
  0
DICTIONARY
  0
ENDSEC
  0
EOF
