  0
SECTION
  2
BLOCKS
  0
ENDSEC
  0
SECTION
  2
ENTITIES
  0
LINE
  8
0
 10
15.1916
 20
5.74609
 11
14.6748
 21
7.3367
  0
LINE
  8
0
 10
14.6748
 20
7.3367
 11
14.5
 21
9
  0
LINE
  8
0
 10
14.5
 20
9
 11
14.6748
 21
10.6633
  0
LINE
  8
0
 10
14.6748
 20
10.6633
 11
15.1916
 21
12.2539
  0
LINE
  8
0
 10
15.1916
 20
12.2539
 11
16.0279
 21
13.7023
  0
LINE
  8
0
 10
16.0279
 20
13.7023
 11
17.1469
 21
14.9451
  0
LINE
  8
0
 10
17.1469
 20
14.9451
 11
18.5
 21
15.9282
  0
LINE
  8
0
 10
18.5
 20
15.9282
 11
20.0279
 21
16.6084
  0
LINE
  8
0
 10
20.0279
 20
16.6084
 11
21.6638
 21
16.9562
  0
LINE
  8
0
 10
21.6638
 20
16.9562
 11
23.3362
 21
16.9562
  0
LINE
  8
0
 10
23.3362
 20
16.9562
 11
24.9721
 21
16.6084
  0
LINE
  8
0
 10
24.9721
 20
16.6084
 11
26.5
 21
15.9282
  0
LINE
  8
0
 10
26.5
 20
15.9282
 11
27.853
 21
14.9451
  0
LINE
  8
0
 10
27.853
 20
14.9451
 11
28.9721
 21
13.7023
  0
LINE
  8
0
 10
28.9721
 20
13.7023
 11
29.8083
 21
12.2539
  0
LINE
  8
0
 10
29.8083
 20
12.2539
 11
30.3252
 21
10.6633
  0
LINE
  8
0
 10
30.3252
 20
10.6633
 11
30.5
 21
9
  0
LINE
  8
0
 10
30.5
 20
9
 11
30.3252
 21
7.3367
  0
LINE
  8
0
 10
30.3252
 20
7.3367
 11
29.8083
 21
5.74609
  0
LINE
  8
0
 10
29.8083
 20
5.74609
 11
29.3776
 21
5
  0
LINE
  8
0
 10
29.3776
 20
5
 11
39.953
 21
5
  0
LINE
  8
0
 10
39.953
 20
5
 11
39.9688
 21
5.00909
  0
LINE
  8
0
 10
39.9688
 20
5.00909
 11
39.9843
 21
5.02309
  0
LINE
  8
0
 10
39.9843
 20
5.02309
 11
39.9966
 21
5.03999
  0
LINE
  8
0
 10
39.9966
 20
5.03999
 11
39.9997
 21
5.04689
  0
LINE
  8
0
 10
39.9997
 20
5.04689
 11
39.0233
 21
144.9
  0
LINE
  8
0
 10
39.0233
 20
144.9
 11
38.9617
 21
144.9
  0
LINE
  8
0
 10
38.9617
 20
144.9
 11
38.9628
 21
144.91
  0
LINE
  8
0
 10
38.9628
 20
144.91
 11
38.9606
 21
144.931
  0
LINE
  8
0
 10
38.9606
 20
144.931
 11
38.9542
 21
144.951
  0
LINE
  8
0
 10
38.9542
 20
144.951
 11
38.9437
 21
144.969
  0
LINE
  8
0
 10
38.9437
 20
144.969
 11
38.9297
 21
144.984
  0
LINE
  8
0
 10
38.9297
 20
144.984
 11
38.9128
 21
144.997
  0
LINE
  8
0
 10
38.9128
 20
144.997
 11
38.9052
 21
145
  0
LINE
  8
0
 10
38.9052
 20
145
 11
6.09416
 21
145
  0
LINE
  8
0
 10
6.09416
 20
145
 11
6.0784
 21
144.991
  0
LINE
  8
0
 10
6.0784
 20
144.991
 11
6.06287
 21
144.977
  0
LINE
  8
0
 10
6.06287
 20
144.977
 11
6.05058
 21
144.96
  0
LINE
  8
0
 10
6.05058
 20
144.96
 11
6.04208
 21
144.941
  0
LINE
  8
0
 10
6.04208
 20
144.941
 11
6.03773
 21
144.92
  0
LINE
  8
0
 10
6.03773
 20
144.92
 11
6.03773
 21
144.9
  0
LINE
  8
0
 10
6.03773
 20
144.9
 11
5.9767
 21
144.9
  0
LINE
  8
0
 10
5.9767
 20
144.9
 11
5.00032
 21
5.04642
  0
LINE
  8
0
 10
5.00032
 20
5.04642
 11
5.00909
 21
5.03122
  0
LINE
  8
0
 10
5.00909
 20
5.03122
 11
5.02309
 21
5.01567
  0
LINE
  8
0
 10
5.02309
 20
5.01567
 11
5.03999
 21
5.00339
  0
LINE
  8
0
 10
5.03999
 20
5.00339
 11
5.04762
 21
5
  0
LINE
  8
0
 10
5.04762
 20
5
 11
15.6224
 21
5
  0
LINE
  8
0
 10
15.6224
 20
5
 11
15.1916
 21
5.74609
  0
LINE
  8
0
 10
22.4
 20
75
 11
22.5
 21
75.1
  0
LINE
  8
0
 10
22.5
 20
75.1
 11
22.6
 21
75
  0
LINE
  8
0
 10
22.6
 20
75
 11
22.5
 21
74.9
  0
LINE
  8
0
 10
22.5
 20
74.9
 11
22.4
 21
75
  0
ENDSEC
  0
SECTION
  2
OBJECTS
  0
DICTIONARY
  0
ENDSEC
  0
EOF
