  0
SECTION
  2
BLOCKS
  0
ENDSEC
  0
SECTION
  2
ENTITIES
  0
LINE
  8
0
 10
41.0495
 20
0.0992584
 11
42.0437
 21
0.422272
  0
LINE
  8
0
 10
42.0437
 20
0.422272
 11
42.9489
 21
0.944916
  0
LINE
  8
0
 10
42.9489
 20
0.944916
 11
43.7257
 21
1.64433
  0
LINE
  8
0
 10
43.7257
 20
1.64433
 11
44.3401
 21
2.48999
  0
LINE
  8
0
 10
44.3401
 20
2.48999
 11
44.7653
 21
3.44492
  0
LINE
  8
0
 10
44.7653
 20
3.44492
 11
44.9692
 21
4.40451
  0
LINE
  8
0
 10
44.9692
 20
4.40451
 11
43.9877
 21
145
  0
LINE
  8
0
 10
43.9877
 20
145
 11
43.9617
 21
145
  0
LINE
  8
0
 10
43.9617
 20
145
 11
43.9628
 21
145.01
  0
LINE
  8
0
 10
43.9628
 20
145.01
 11
43.8535
 21
146.05
  0
LINE
  8
0
 10
43.8535
 20
146.05
 11
43.5305
 21
147.044
  0
LINE
  8
0
 10
43.5305
 20
147.044
 11
43.0079
 21
147.949
  0
LINE
  8
0
 10
43.0079
 20
147.949
 11
42.3085
 21
148.726
  0
LINE
  8
0
 10
42.3085
 20
148.726
 11
41.4628
 21
149.34
  0
LINE
  8
0
 10
41.4628
 20
149.34
 11
40.5079
 21
149.765
  0
LINE
  8
0
 10
40.5079
 20
149.765
 11
39.4854
 21
149.983
  0
LINE
  8
0
 10
39.4854
 20
149.983
 11
38.9528
 21
149.983
  0
LINE
  8
0
 10
38.9528
 20
149.983
 11
38.9528
 21
150
  0
LINE
  8
0
 10
38.9528
 20
150
 11
5.94205
 21
150
  0
LINE
  8
0
 10
5.94205
 20
150
 11
4.99762
 21
149.901
  0
LINE
  8
0
 10
4.99762
 20
149.901
 11
4.00349
 21
149.578
  0
LINE
  8
0
 10
4.00349
 20
149.578
 11
3.09825
 21
149.055
  0
LINE
  8
0
 10
3.09825
 20
149.055
 11
2.32146
 21
148.356
  0
LINE
  8
0
 10
2.32146
 20
148.356
 11
1.70706
 21
147.51
  0
LINE
  8
0
 10
1.70706
 20
147.51
 11
1.28191
 21
146.555
  0
LINE
  8
0
 10
1.28191
 20
146.555
 11
1.06458
 21
145.533
  0
LINE
  8
0
 10
1.06458
 20
145.533
 11
1.06458
 21
145
  0
LINE
  8
0
 10
1.06458
 20
145
 11
1.0123
 21
145
  0
LINE
  8
0
 10
1.0123
 20
145
 11
0.0320435
 21
4.58997
  0
LINE
  8
0
 10
0.0320435
 20
4.58997
 11
0.0992584
 21
3.95044
  0
LINE
  8
0
 10
0.0992584
 20
3.95044
 11
0.422272
 21
2.95631
  0
LINE
  8
0
 10
0.422272
 20
2.95631
 11
0.944916
 21
2.05107
  0
LINE
  8
0
 10
0.944916
 20
2.05107
 11
1.64433
 21
1.27428
  0
LINE
  8
0
 10
1.64433
 20
1.27428
 11
2.48999
 21
0.659866
  0
LINE
  8
0
 10
2.48999
 20
0.659866
 11
3.44492
 21
0.234711
  0
LINE
  8
0
 10
3.44492
 20
0.234711
 11
4.46735
 21
0.0173798
  0
LINE
  8
0
 10
4.46735
 20
0.0173798
 11
5
 21
0.0173798
  0
LINE
  8
0
 10
5
 20
0.0173798
 11
5
 21
0
  0
LINE
  8
0
 10
5
 20
0
 11
40.1051
 21
0
  0
LINE
  8
0
 10
40.1051
 20
0
 11
41.0495
 21
0.0992584
  0
LINE
  8
0
 10
22.4
 20
75
 11
22.5
 21
75.1
  0
LINE
  8
0
 10
22.5
 20
75.1
 11
22.6
 21
75
  0
LINE
  8
0
 10
22.6
 20
75
 11
22.5
 21
74.9
  0
LINE
  8
0
 10
22.5
 20
74.9
 11
22.4
 21
75
  0
LINE
  8
0
 10
22.1864
 20
6.01643
 11
21.5729
 21
6.14682
  0
LINE
  8
0
 10
21.5729
 20
6.14682
 11
21
 21
6.40192
  0
LINE
  8
0
 10
21
 20
6.40192
 11
20.4926
 21
6.77055
  0
LINE
  8
0
 10
20.4926
 20
6.77055
 11
20.0729
 21
7.23663
  0
LINE
  8
0
 10
20.0729
 20
7.23663
 11
19.7594
 21
7.77979
  0
LINE
  8
0
 10
19.7594
 20
7.77979
 11
19.5656
 21
8.37625
  0
LINE
  8
0
 10
19.5656
 20
8.37625
 11
19.5
 21
9
  0
LINE
  8
0
 10
19.5
 20
9
 11
19.5656
 21
9.62373
  0
LINE
  8
0
 10
19.5656
 20
9.62373
 11
19.7594
 21
10.2202
  0
LINE
  8
0
 10
19.7594
 20
10.2202
 11
20.0729
 21
10.7634
  0
LINE
  8
0
 10
20.0729
 20
10.7634
 11
20.4926
 21
11.2294
  0
LINE
  8
0
 10
20.4926
 20
11.2294
 11
21
 21
11.5981
  0
LINE
  8
0
 10
21
 20
11.5981
 11
21.5729
 21
11.8532
  0
LINE
  8
0
 10
21.5729
 20
11.8532
 11
22.1864
 21
11.9836
  0
LINE
  8
0
 10
22.1864
 20
11.9836
 11
22.8136
 21
11.9836
  0
LINE
  8
0
 10
22.8136
 20
11.9836
 11
23.427
 21
11.8532
  0
LINE
  8
0
 10
23.427
 20
11.8532
 11
24
 21
11.5981
  0
LINE
  8
0
 10
24
 20
11.5981
 11
24.5074
 21
11.2294
  0
LINE
  8
0
 10
24.5074
 20
11.2294
 11
24.927
 21
10.7634
  0
LINE
  8
0
 10
24.927
 20
10.7634
 11
25.2406
 21
10.2202
  0
LINE
  8
0
 10
25.2406
 20
10.2202
 11
25.4344
 21
9.62373
  0
LINE
  8
0
 10
25.4344
 20
9.62373
 11
25.5
 21
9
  0
LINE
  8
0
 10
25.5
 20
9
 11
25.4344
 21
8.37625
  0
LINE
  8
0
 10
25.4344
 20
8.37625
 11
25.2406
 21
7.77979
  0
LINE
  8
0
 10
25.2406
 20
7.77979
 11
24.927
 21
7.23663
  0
LINE
  8
0
 10
24.927
 20
7.23663
 11
24.5074
 21
6.77055
  0
LINE
  8
0
 10
24.5074
 20
6.77055
 11
24
 21
6.40192
  0
LINE
  8
0
 10
24
 20
6.40192
 11
23.427
 21
6.14682
  0
LINE
  8
0
 10
23.427
 20
6.14682
 11
22.8136
 21
6.01643
  0
LINE
  8
0
 10
22.8136
 20
6.01643
 11
22.1864
 21
6.01643
  0
ENDSEC
  0
SECTION
  2
OBJECTS
  0
DICTIONARY
  0
ENDSEC
  0
EOF
